<svg width="45" height="45" viewBox="0 0 45 45" fill="none" xmlns="http://www.w3.org/2000/svg">
<path d="M22.5 2.8125C18.6062 2.8125 14.7998 3.96715 11.5622 6.13044C8.32461 8.29373 5.80122 11.3685 4.31112 14.9659C2.82102 18.5633 2.43114 22.5218 3.19078 26.3408C3.95043 30.1598 5.82548 33.6678 8.57883 36.4212C11.3322 39.1745 14.8402 41.0496 18.6592 41.8092C22.4782 42.5689 26.4367 42.179 30.0341 40.6889C33.6315 39.1988 36.7063 36.6754 38.8696 33.4378C41.0328 30.2002 42.1875 26.3938 42.1875 22.5C42.1875 17.2786 40.1133 12.271 36.4212 8.57883C32.729 4.88671 27.7214 2.8125 22.5 2.8125V2.8125ZM33.75 35.0423V34.1873C33.7891 32.2698 33.0745 30.4134 31.7598 29.0169C30.4451 27.6204 28.6352 26.7953 26.7187 26.7188H18.2812C16.3664 26.7957 14.5583 27.6212 13.246 29.0177C11.9337 30.4142 11.222 32.27 11.2641 34.1859C11.2641 34.2014 11.25 34.2169 11.25 34.2323V35.055C8.69892 32.7778 6.89953 29.7796 6.08999 26.4573C5.28045 23.1349 5.49893 19.645 6.71652 16.4496C7.93411 13.2541 10.0934 10.5038 12.9085 8.56253C15.7237 6.62131 19.062 5.58077 22.4816 5.57863C25.9011 5.57649 29.2407 6.61286 32.0583 8.55056C34.8759 10.4883 37.0386 13.2359 38.2602 16.4299C39.4818 19.6238 39.7046 23.1134 38.8992 26.4368C38.0939 29.7601 36.2982 32.7606 33.75 35.0409V35.0423Z" fill="#227CCF"/>
<path d="M22.5 9.84375C21.1094 9.84375 19.7499 10.2561 18.5937 11.0287C17.4374 11.8013 16.5362 12.8995 16.004 14.1843C15.4718 15.4691 15.3326 16.8828 15.6039 18.2467C15.8752 19.6107 16.5448 20.8635 17.5282 21.8468C18.5115 22.8302 19.7643 23.4998 21.1283 23.7711C22.4922 24.0424 23.906 23.9032 25.1907 23.371C26.4755 22.8388 27.5737 21.9376 28.3463 20.7814C29.1189 19.6251 29.5313 18.2656 29.5313 16.875C29.5313 15.0102 28.7905 13.2218 27.4718 11.9032C26.1532 10.5845 24.3648 9.84375 22.5 9.84375V9.84375Z" fill="#227CCF"/>
</svg>
