<svg width="21" height="21" viewBox="0 0 21 21" fill="none" xmlns="http://www.w3.org/2000/svg">
<path d="M10.5889 1.6449C5.75684 1.6449 1.83887 5.56287 1.83887 10.3949C1.83887 15.2269 5.75684 19.1449 10.5889 19.1449C15.4209 19.1449 19.3389 15.2269 19.3389 10.3949C19.3389 5.56287 15.4209 1.6449 10.5889 1.6449ZM14.3682 7.53748L10.2549 13.2406C10.1974 13.3208 10.1216 13.3862 10.0338 13.4313C9.946 13.4764 9.84871 13.5 9.75 13.5C9.65129 13.5 9.554 13.4764 9.4662 13.4313C9.3784 13.3862 9.30261 13.3208 9.24512 13.2406L6.80957 9.8656C6.73535 9.76209 6.80957 9.61755 6.93652 9.61755H7.85254C8.05176 9.61755 8.24121 9.71326 8.3584 9.87732L9.74902 11.807L12.8193 7.54919C12.9365 7.38709 13.124 7.28943 13.3252 7.28943H14.2412C14.3682 7.28943 14.4424 7.43396 14.3682 7.53748V7.53748Z" fill="#227CCF"/>
</svg>
