<svg width="40" height="40" viewBox="0 0 40 40" fill="none" xmlns="http://www.w3.org/2000/svg">
<path d="M22.6516 20L30.0734 12.5781C30.4257 12.2265 30.6238 11.7494 30.6243 11.2517C30.6247 10.754 30.4274 10.2765 30.0758 9.92424C29.7242 9.572 29.247 9.37386 28.7493 9.37342C28.2516 9.37298 27.7741 9.57027 27.4219 9.92189L20 17.3438L12.5781 9.92189C12.2259 9.56965 11.7481 9.37177 11.25 9.37177C10.7519 9.37177 10.2741 9.56965 9.92188 9.92189C9.56964 10.2741 9.37175 10.7519 9.37175 11.25C9.37175 11.7482 9.56964 12.2259 9.92188 12.5781L17.3438 20L9.92188 27.4219C9.56964 27.7741 9.37175 28.2519 9.37175 28.75C9.37175 29.2482 9.56964 29.7259 9.92188 30.0781C10.2741 30.4304 10.7519 30.6283 11.25 30.6283C11.7481 30.6283 12.2259 30.4304 12.5781 30.0781L20 22.6563L27.4219 30.0781C27.7741 30.4304 28.2519 30.6283 28.75 30.6283C29.2481 30.6283 29.7259 30.4304 30.0781 30.0781C30.4304 29.7259 30.6283 29.2482 30.6283 28.75C30.6283 28.2519 30.4304 27.7741 30.0781 27.4219L22.6516 20Z" fill="black"/>
</svg>
