<svg width="40" height="46" viewBox="0 0 40 46" fill="none" xmlns="http://www.w3.org/2000/svg">
<path d="M0 2.85712V42.8571H40V2.85712H0ZM16.6964 15.4375C15.0536 15.4375 15 16.3214 15 17.8839V19.9643C15 20.1785 14.6875 20.3571 14.9464 20.3571H20.9643L19.9732 23.6875H15V33.7678C15 34.2857 14.8214 34.366 15.2857 34.4196L19.1696 34.7857V37.0268H7.5V34.7321L9.40179 34.5535C9.86607 34.5 10 34.3482 10 33.8482V23.9018C10 23.6964 9.74107 23.6964 9.48214 23.6964H7.5V20.3571H10V18.4821C10 14.0535 12.3661 12.2321 16.9018 12.2321C19.9464 12.2321 22.6786 12.9643 22.6786 16.9464L18.1518 17.491C18.1786 15.8214 17.7589 15.4375 16.6964 15.4375ZM23.3304 37.0268V34.7857L25.1518 34.5535C25.6161 34.5 25.8304 34.4018 25.8304 33.9018V24.2678C25.8304 23.9018 25.5714 23.6696 25.2321 23.5625L23.0714 22.991L23.6696 20.3571H30.8304V33.9018C30.8304 34.4196 30.5982 34.4732 31.0893 34.5535L32.4911 34.7857V37.0268H23.3304ZM30.5446 14.2143L31.3482 17.1785L30.6964 17.8303L27.9107 16.3482L25.125 17.8303L24.4732 17.1785L25.2768 14.2143L23.3304 12.0535L23.6429 11.1964H26.1161L27.5 8.6964H28.3304L29.7143 11.1964H32.1875L32.5 12.0535L30.5446 14.2143Z" fill="#227CCF"/>
</svg>
