<svg width="19" height="20" viewBox="0 0 19 20" fill="none" xmlns="http://www.w3.org/2000/svg">
<path fill-rule="evenodd" clip-rule="evenodd" d="M18.4812 0.111024C18.5642 0.168579 18.632 0.245378 18.6788 0.33485C18.7256 0.424321 18.75 0.5238 18.75 0.624774V19.3748C18.75 19.5405 18.6842 19.6995 18.5669 19.8167C18.4497 19.9339 18.2908 19.9998 18.125 19.9998H14.375C14.2092 19.9998 14.0503 19.9339 13.9331 19.8167C13.8158 19.6995 13.75 19.5405 13.75 19.3748V17.4998H12.5V19.3748C12.5 19.5405 12.4342 19.6995 12.3169 19.8167C12.1997 19.9339 12.0408 19.9998 11.875 19.9998H0.625C0.45924 19.9998 0.300268 19.9339 0.183058 19.8167C0.065848 19.6995 0 19.5405 0 19.3748V11.8748C6.81057e-05 11.7268 0.0526129 11.5837 0.148287 11.4709C0.243962 11.358 0.376562 11.2828 0.5225 11.2585L7.5 10.096V4.37477C7.5 4.24765 7.53877 4.12354 7.61113 4.01902C7.68349 3.91449 7.78601 3.83452 7.905 3.78977L17.905 0.0397738C17.9995 0.00435523 18.1011 -0.00766377 18.2013 0.00474384C18.3014 0.0171514 18.397 0.0536168 18.48 0.111024H18.4812ZM8.75 4.80727V10.6248C8.74993 10.7727 8.69739 10.9158 8.60171 11.0287C8.50604 11.1415 8.37344 11.2168 8.2275 11.241L1.25 12.4035V18.7498H11.25V16.8748C11.25 16.709 11.3158 16.55 11.4331 16.4328C11.5503 16.3156 11.7092 16.2498 11.875 16.2498H14.375C14.5408 16.2498 14.6997 16.3156 14.8169 16.4328C14.9342 16.55 15 16.709 15 16.8748V18.7498H17.5V1.52727L8.75 4.80727Z" fill="#227CCF"/>
<path fill-rule="evenodd" clip-rule="evenodd" d="M7.5 19.3748V10.6248H8.75V19.3748H7.5Z" fill="#227CCF"/>
<path d="M2.5 13.7498H3.75V14.9998H2.5V13.7498ZM5 13.7498H6.25V14.9998H5V13.7498ZM2.5 16.2498H3.75V17.4998H2.5V16.2498ZM5 16.2498H6.25V17.4998H5V16.2498ZM12.5 3.74976H13.75V4.99976H12.5V3.74976ZM15 3.74976H16.25V4.99976H15V3.74976ZM10 6.24976H11.25V7.49976H10V6.24976ZM12.5 6.24976H13.75V7.49976H12.5V6.24976ZM15 6.24976H16.25V7.49976H15V6.24976ZM12.5 8.74976H13.75V9.99976H12.5V8.74976ZM15 8.74976H16.25V9.99976H15V8.74976ZM10 8.74976H11.25V9.99976H10V8.74976ZM10 11.2498H11.25V12.4998H10V11.2498ZM12.5 11.2498H13.75V12.4998H12.5V11.2498ZM15 11.2498H16.25V12.4998H15V11.2498ZM10 13.7498H11.25V14.9998H10V13.7498ZM12.5 13.7498H13.75V14.9998H12.5V13.7498ZM15 13.7498H16.25V14.9998H15V13.7498Z" fill="#227CCF"/>
</svg>
