<svg width="25" height="25" viewBox="0 0 25 25" fill="none" xmlns="http://www.w3.org/2000/svg">
<path d="M23.9287 7.01533C23.5141 6.76249 22.9408 6.76929 22.5174 6.50576C21.6917 5.98646 21.4787 5.226 21.4436 4.09892C19.638 1.94589 16.9399 0.0388984 13.183 0.0991909C12.1645 0.115723 11.2056 0.065155 10.4149 0.522211C10.1888 0.866462 10.4114 1.024 10.6674 1.10569C10.4132 1.23891 10.0608 1.24767 10.1186 1.78252C12.5028 1.41007 16.6708 2.38933 16.3562 4.66684C16.286 5.17251 15.7119 5.7132 15.3218 6.18679C14.2156 7.53073 13.0446 8.56932 12.026 9.7528L12.3205 10.0795C12.9709 9.57387 13.588 9.31617 14.1648 9.31617C14.7845 9.31617 15.1465 9.60499 15.2833 9.73724C15.7873 9.13626 16.3053 8.5275 16.8961 7.93527C17.323 7.5035 17.813 6.86557 18.2679 6.78972L19.0989 6.69247C20.1122 6.7372 20.7968 6.97448 21.264 7.8886C21.5006 8.35732 21.4945 8.9972 21.7215 9.45815C21.8749 9.77419 22.5428 10.6445 22.875 10.6543C23.1328 10.6621 23.4036 10.4598 23.6639 10.1778L24.5685 9.17127C24.8227 8.88537 25.0068 8.58779 24.9998 8.29994C24.9945 7.93041 24.2109 7.18648 23.9278 7.0163L23.9287 7.01533ZM10.3273 12.3561L9.67861 11.6365C6.92624 14.2057 3.96351 17.2164 1.32509 19.9879C0.909608 20.4197 0.0514666 20.9818 0.00413299 21.4855C-0.0686206 22.244 0.836855 22.9102 1.32422 23.4304C1.8107 23.9488 2.38484 24.9883 3.07118 24.8989C3.51822 24.857 4.031 23.8972 4.42457 23.4382C6.47897 21.0483 8.49047 18.6134 10.4579 16.1351C10.1844 15.7752 10.0213 15.5564 10.0213 15.5564C9.90125 15.3697 9.23858 14.2242 10.3281 12.357L10.3273 12.3561ZM17.0066 12.6381C16.6857 12.3288 15.7215 12.7772 15.4489 12.5194C15.1772 12.2617 15.5979 11.2961 15.3963 11.1055L14.7214 10.4773C14.7214 10.4773 13.9649 9.67014 12.2557 11.3797L5.43611 3.81399C5.08987 3.42987 5.22837 2.04217 5.22837 2.04217L1.99741 0L1.21377 0.870352L3.05452 4.45581C3.05452 4.45581 4.30624 4.30216 4.65335 4.68628L11.4834 12.2647C10.1248 14.0443 10.698 14.9409 10.698 14.9409C10.698 14.9409 10.9067 15.22 11.2643 15.6897C11.4361 15.9133 12.3056 15.4466 12.5397 15.748C12.7711 16.0524 12.3679 17.1192 12.6448 17.477C14.9817 20.4567 18.7158 25 19.7668 25C20.5487 25 21.5374 24.2959 22.3509 23.4052C23.1617 22.5134 23.7884 21.4068 23.7884 20.5393C23.7884 19.3724 19.6914 15.2316 17.0057 12.6391L17.0066 12.6381Z" fill="#227CCF"/>
</svg>
