<svg width="25" height="25" viewBox="0 0 25 25" fill="none" xmlns="http://www.w3.org/2000/svg">
<path d="M2.89474 14.8438L2.10526 12.5H7.63158L7 10.1562H1.84211L1.05263 7.8125H9.26316L8.63158 5.46875H0.905263L0 3.125H3.94737C3.94737 2.2962 4.16917 1.50134 4.56399 0.915291C4.9588 0.32924 5.49428 0 6.05263 0H18.6842V6.25H21.8421L25 12.5V20.3125H22.8947C22.8947 21.5557 22.562 22.748 21.9698 23.6271C21.3776 24.5061 20.5744 25 19.7368 25C18.8993 25 18.0961 24.5061 17.5039 23.6271C16.9117 22.748 16.5789 21.5557 16.5789 20.3125H12.3684C12.3684 21.5557 12.0357 22.748 11.4435 23.6271C10.8513 24.5061 10.0481 25 9.21053 25C8.373 25 7.56978 24.5061 6.97756 23.6271C6.38534 22.748 6.05263 21.5557 6.05263 20.3125H3.94737V14.8438H2.89474ZM19.7368 22.6562C20.1556 22.6562 20.5572 22.4093 20.8533 21.9698C21.1494 21.5302 21.3158 20.9341 21.3158 20.3125C21.3158 19.6909 21.1494 19.0948 20.8533 18.6552C20.5572 18.2157 20.1556 17.9688 19.7368 17.9688C19.3181 17.9688 18.9165 18.2157 18.6204 18.6552C18.3242 19.0948 18.1579 19.6909 18.1579 20.3125C18.1579 20.9341 18.3242 21.5302 18.6204 21.9698C18.9165 22.4093 19.3181 22.6562 19.7368 22.6562ZM21.3158 8.59375H18.6842V12.5H23.3789L21.3158 8.59375ZM9.21053 22.6562C9.62929 22.6562 10.0309 22.4093 10.327 21.9698C10.6231 21.5302 10.7895 20.9341 10.7895 20.3125C10.7895 19.6909 10.6231 19.0948 10.327 18.6552C10.0309 18.2157 9.62929 17.9688 9.21053 17.9688C8.79176 17.9688 8.39015 18.2157 8.09404 18.6552C7.79793 19.0948 7.63158 19.6909 7.63158 20.3125C7.63158 20.9341 7.79793 21.5302 8.09404 21.9698C8.39015 22.4093 8.79176 22.6562 9.21053 22.6562Z" fill="#227CCF"/>
</svg>
