<svg width="25" height="25" viewBox="0 0 25 25" fill="none" xmlns="http://www.w3.org/2000/svg">
<path d="M12.5 14.5996C13.6596 14.5996 14.5996 13.6596 14.5996 12.5C14.5996 11.3404 13.6596 10.4004 12.5 10.4004C11.3404 10.4004 10.4004 11.3404 10.4004 12.5C10.4004 13.6596 11.3404 14.5996 12.5 14.5996Z" fill="#227CCF"/>
<path d="M23.2388 14.8394C23.7059 14.3798 24.0254 13.7915 24.1565 13.1495C24.2875 12.5074 24.2243 11.8409 23.9747 11.2351C23.7251 10.6292 23.3006 10.1115 22.7553 9.74807C22.21 9.38466 21.5688 9.19205 20.9136 9.19485C20.7729 9.19485 20.6108 9.20169 20.4287 9.21585C20.563 9.10062 20.6841 8.99026 20.7866 8.88821C21.2475 8.42553 21.5614 7.83691 21.6887 7.19636C21.816 6.55581 21.7511 5.89192 21.5021 5.28816C21.2531 4.6844 20.8312 4.16772 20.2894 3.80308C19.7476 3.43844 19.1101 3.24212 18.457 3.2388H18.4448C18.0104 3.23907 17.5803 3.32553 17.1795 3.49316C16.7787 3.66079 16.4151 3.90626 16.1099 4.21536C16.0068 4.31839 15.8965 4.43948 15.7817 4.57327C15.7959 4.39017 15.8032 4.22806 15.8032 4.08841C15.8032 3.21182 15.455 2.37114 14.8352 1.7513C14.2153 1.13146 13.3746 0.783234 12.498 0.783234C11.6215 0.783234 10.7808 1.13146 10.1609 1.7513C9.54109 2.37114 9.19287 3.21182 9.19287 4.08841C9.19287 4.22855 9.2002 4.39066 9.21436 4.57327C9.09912 4.43948 8.98877 4.31839 8.88623 4.21536C8.58095 3.90626 8.21739 3.66079 7.81659 3.49316C7.41579 3.32553 6.98571 3.23907 6.55127 3.2388H6.54297C5.89092 3.244 5.25489 3.44137 4.71443 3.8062C4.17398 4.17103 3.75311 4.68713 3.50447 5.28994C3.25584 5.89274 3.19048 6.55548 3.31657 7.19524C3.44266 7.835 3.75461 8.42337 4.21338 8.88675C4.31592 8.9888 4.43701 9.09915 4.57178 9.21487C4.38916 9.20071 4.22705 9.19339 4.08643 9.19339C3.20984 9.19339 2.36915 9.54161 1.74931 10.1615C1.12947 10.7813 0.78125 11.622 0.78125 12.4986C0.78125 13.3752 1.12947 14.2158 1.74931 14.8357C2.36915 15.4555 3.20984 15.8037 4.08643 15.8037C4.22607 15.8037 4.38818 15.7964 4.57129 15.7823C4.4375 15.897 4.31641 16.0074 4.21338 16.1104C3.75017 16.5716 3.43443 17.16 3.30623 17.8009C3.17804 18.4418 3.24316 19.1064 3.49335 19.7103C3.74354 20.3141 4.1675 20.83 4.71142 21.1925C5.25535 21.555 5.89471 21.7477 6.54834 21.7461H6.56055C6.99229 21.7468 7.41995 21.6624 7.81908 21.4978C8.21821 21.3332 8.58099 21.0915 8.88672 20.7867C8.98877 20.6841 9.09912 20.563 9.21436 20.4287C9.20068 20.6109 9.19336 20.773 9.19336 20.9136C9.19336 21.7902 9.54158 22.6309 10.1614 23.2507C10.7813 23.8706 11.6219 24.2188 12.4985 24.2188C13.3751 24.2188 14.2158 23.8706 14.8356 23.2507C15.4555 22.6309 15.8037 21.7902 15.8037 20.9136C15.8037 20.7735 15.7964 20.6114 15.7822 20.4283C15.8975 20.5625 16.0078 20.6841 16.1104 20.7867C16.4161 21.0919 16.7791 21.334 17.1785 21.4989C17.5779 21.6637 18.0059 21.7483 18.438 21.7476H18.4502C19.1042 21.7503 19.7442 21.5584 20.2888 21.1963C20.8334 20.8342 21.2579 20.3183 21.5085 19.7142C21.759 19.1101 21.8241 18.4451 21.6956 17.8039C21.567 17.1627 21.2506 16.5742 20.7866 16.1133C20.6836 16.0103 20.5625 15.8999 20.4287 15.7852C20.6118 15.7993 20.7739 15.8067 20.9136 15.8067C21.3457 15.8063 21.7736 15.7207 22.1726 15.5547C22.5716 15.3887 22.9339 15.1456 23.2388 14.8394ZM12.5 16.6504C11.6791 16.6504 10.8767 16.407 10.1942 15.951C9.51164 15.4949 8.97967 14.8467 8.66554 14.0883C8.35141 13.3299 8.26921 12.4954 8.42936 11.6903C8.5895 10.8852 8.98479 10.1457 9.56523 9.56526C10.1457 8.98482 10.8852 8.58953 11.6903 8.42939C12.4954 8.26925 13.3299 8.35144 14.0883 8.66557C14.8467 8.9797 15.4949 9.51167 15.9509 10.1942C16.407 10.8767 16.6504 11.6792 16.6504 12.5C16.6491 13.6004 16.2114 14.6553 15.4333 15.4334C14.6553 16.2114 13.6004 16.6491 12.5 16.6504Z" fill="#227CCF"/>
</svg>
