<svg width="25" height="25" viewBox="0 0 25 25" fill="none" xmlns="http://www.w3.org/2000/svg">
<path d="M17.4192 7.8125C16.9175 7.79622 16.4158 7.67415 15.9142 7.44629C15.877 7.43001 15.8398 7.4056 15.8027 7.37305C15.7655 7.34049 15.7376 7.32422 15.7191 7.32422C14.8829 7.82878 14.1351 8.41471 13.4755 9.08203C12.8159 9.74935 12.4861 10.3678 12.4861 10.9375C12.4861 11.2793 12.6812 11.8001 13.0713 12.5H20.5128C20.7544 12.5 20.9634 12.5773 21.1399 12.7319C21.3164 12.8866 21.4047 13.0697 21.4047 13.2812V14.8438C21.4047 15.0553 21.3164 15.2384 21.1399 15.3931C20.9634 15.5477 20.7544 15.625 20.5128 15.625H19.621L17.4749 24.3408C17.4192 24.5199 17.3077 24.6745 17.1405 24.8047C16.9732 24.9349 16.7874 25 16.5831 25H8.41695C8.19398 25 7.99889 24.9349 7.83166 24.8047C7.66444 24.6745 7.55295 24.5199 7.49721 24.3408L5.35117 15.625H4.45931C4.21776 15.625 4.00873 15.5477 3.83222 15.3931C3.6557 15.2384 3.56745 15.0553 3.56745 14.8438V13.2812C3.56745 13.0697 3.6557 12.8866 3.83222 12.7319C4.00873 12.5773 4.21776 12.5 4.45931 12.5H10.4794C10.628 11.9466 10.7023 11.4258 10.7023 10.9375C10.7023 10.319 10.5723 9.65169 10.3122 8.93555C9.53177 8.13802 8.58417 7.51953 7.46934 7.08008C6.26161 7.94271 4.97956 8.04036 3.62319 7.37305C3.17726 7.16146 2.77778 6.94173 2.42475 6.71387C2.07172 6.486 1.76979 6.22965 1.51895 5.94482C1.26812 5.65999 1.05444 5.40365 0.877926 5.17578C0.701412 4.94792 0.557414 4.65088 0.445931 4.28467C0.334448 3.91846 0.246191 3.61328 0.181159 3.36914C0.116128 3.125 0.0743218 2.77507 0.0557414 2.31934C0.0371609 1.86361 0.0232256 1.50146 0.0139353 1.23291C0.00464511 0.964355 0 0.553385 0 0C0.40877 0.406901 0.929023 0.69987 1.56076 0.878906C2.19249 1.05794 2.82423 1.16374 3.45596 1.19629C4.0877 1.22884 4.71944 1.28174 5.35117 1.35498C5.98291 1.42822 6.58677 1.6276 7.16277 1.95312C7.73876 2.27865 8.20327 2.75065 8.5563 3.36914C8.79784 3.77604 8.91862 4.23177 8.91862 4.73633C8.91862 5.14323 8.82572 5.52572 8.63991 5.88379C9.51319 6.32324 10.2007 6.70573 10.7023 7.03125C11.074 7.27539 11.4456 7.64974 11.8172 8.1543C12.3003 7.25911 13.1735 6.47786 14.437 5.81055V5.78613C13.9725 4.30501 14.4742 3.19824 15.942 2.46582C16.518 2.18913 17.0615 1.97347 17.5725 1.81885C18.0834 1.66423 18.6037 1.58691 19.1332 1.58691C19.6628 1.58691 20.1226 1.60726 20.5128 1.64795C20.903 1.68864 21.3861 1.81885 21.9621 2.03857C22.5381 2.2583 23.0026 2.44548 23.3556 2.6001C23.7087 2.75472 24.2475 3.00293 24.9721 3.34473C24.359 3.44238 23.8109 3.67432 23.3278 4.04053C22.8447 4.40674 22.4313 4.80143 22.0875 5.22461C21.7438 5.64779 21.3768 6.06689 20.9866 6.48193C20.5964 6.89697 20.1041 7.23063 19.5095 7.48291C18.9149 7.73519 18.2181 7.84505 17.4192 7.8125Z" fill="#227CCF"/>
</svg>
