<svg width="40" height="40" viewBox="0 0 40 40" fill="none" xmlns="http://www.w3.org/2000/svg">
<path d="M35.625 7.5H12.8125C12.6406 7.5 12.5 7.64062 12.5 7.8125V10C12.5 10.1719 12.6406 10.3125 12.8125 10.3125H35.625C35.7969 10.3125 35.9375 10.1719 35.9375 10V7.8125C35.9375 7.64062 35.7969 7.5 35.625 7.5ZM35.625 18.5938H12.8125C12.6406 18.5938 12.5 18.7344 12.5 18.9062V21.0938C12.5 21.2656 12.6406 21.4062 12.8125 21.4062H35.625C35.7969 21.4062 35.9375 21.2656 35.9375 21.0938V18.9062C35.9375 18.7344 35.7969 18.5938 35.625 18.5938ZM35.625 29.6875H12.8125C12.6406 29.6875 12.5 29.8281 12.5 30V32.1875C12.5 32.3594 12.6406 32.5 12.8125 32.5H35.625C35.7969 32.5 35.9375 32.3594 35.9375 32.1875V30C35.9375 29.8281 35.7969 29.6875 35.625 29.6875ZM4.0625 8.90625C4.0625 9.19352 4.11908 9.47797 4.22901 9.74337C4.33895 10.0088 4.50008 10.2499 4.7032 10.453C4.90633 10.6562 5.14748 10.8173 5.41288 10.9272C5.67828 11.0372 5.96273 11.0938 6.25 11.0938C6.53727 11.0938 6.82172 11.0372 7.08712 10.9272C7.35252 10.8173 7.59367 10.6562 7.7968 10.453C7.99992 10.2499 8.16105 10.0088 8.27099 9.74337C8.38092 9.47797 8.4375 9.19352 8.4375 8.90625C8.4375 8.61898 8.38092 8.33453 8.27099 8.06913C8.16105 7.80373 7.99992 7.56258 7.7968 7.35945C7.59367 7.15633 7.35252 6.9952 7.08712 6.88526C6.82172 6.77533 6.53727 6.71875 6.25 6.71875C5.96273 6.71875 5.67828 6.77533 5.41288 6.88526C5.14748 6.9952 4.90633 7.15633 4.7032 7.35945C4.50008 7.56258 4.33895 7.80373 4.22901 8.06913C4.11908 8.33453 4.0625 8.61898 4.0625 8.90625ZM4.0625 20C4.0625 20.2873 4.11908 20.5717 4.22901 20.8371C4.33895 21.1025 4.50008 21.3437 4.7032 21.5468C4.90633 21.7499 5.14748 21.9111 5.41288 22.021C5.67828 22.1309 5.96273 22.1875 6.25 22.1875C6.53727 22.1875 6.82172 22.1309 7.08712 22.021C7.35252 21.9111 7.59367 21.7499 7.7968 21.5468C7.99992 21.3437 8.16105 21.1025 8.27099 20.8371C8.38092 20.5717 8.4375 20.2873 8.4375 20C8.4375 19.7127 8.38092 19.4283 8.27099 19.1629C8.16105 18.8975 7.99992 18.6563 7.7968 18.4532C7.59367 18.2501 7.35252 18.0889 7.08712 17.979C6.82172 17.8691 6.53727 17.8125 6.25 17.8125C5.96273 17.8125 5.67828 17.8691 5.41288 17.979C5.14748 18.0889 4.90633 18.2501 4.7032 18.4532C4.50008 18.6563 4.33895 18.8975 4.22901 19.1629C4.11908 19.4283 4.0625 19.7127 4.0625 20ZM4.0625 31.0938C4.0625 31.381 4.11908 31.6655 4.22901 31.9309C4.33895 32.1963 4.50008 32.4374 4.7032 32.6405C4.90633 32.8437 5.14748 33.0048 5.41288 33.1147C5.67828 33.2247 5.96273 33.2812 6.25 33.2812C6.53727 33.2812 6.82172 33.2247 7.08712 33.1147C7.35252 33.0048 7.59367 32.8437 7.7968 32.6405C7.99992 32.4374 8.16105 32.1963 8.27099 31.9309C8.38092 31.6655 8.4375 31.381 8.4375 31.0938C8.4375 30.8065 8.38092 30.522 8.27099 30.2566C8.16105 29.9912 7.99992 29.7501 7.7968 29.547C7.59367 29.3438 7.35252 29.1827 7.08712 29.0728C6.82172 28.9628 6.53727 28.9062 6.25 28.9062C5.96273 28.9062 5.67828 28.9628 5.41288 29.0728C5.14748 29.1827 4.90633 29.3438 4.7032 29.547C4.50008 29.7501 4.33895 29.9912 4.22901 30.2566C4.11908 30.522 4.0625 30.8065 4.0625 31.0938Z" fill="#227CCF"/>
</svg>
