<svg width="40" height="40" viewBox="0 0 40 40" fill="none" xmlns="http://www.w3.org/2000/svg">
<path d="M20.3789 3.20312C14.4219 3.1875 9.17967 6.26953 6.18358 10.9258C6.05076 11.1328 6.1992 11.4062 6.44529 11.4062H9.19139C9.37889 11.4062 9.55467 11.3242 9.67186 11.1797C9.94529 10.8477 10.2383 10.5273 10.5469 10.2227C11.8203 8.95312 13.3008 7.95312 14.9492 7.25781C16.6523 6.53906 18.4648 6.17187 20.3359 6.17187C22.207 6.17187 24.0195 6.53515 25.7226 7.25781C27.3711 7.95312 28.8515 8.95312 30.125 10.2227C31.3984 11.4922 32.3945 12.9727 33.0937 14.6172C33.8164 16.3203 34.1797 18.1289 34.1797 20C34.1797 21.8711 33.8125 23.6797 33.0937 25.3828C32.3984 27.0273 31.3984 28.5078 30.125 29.7773C28.8515 31.0469 27.3711 32.0469 25.7226 32.7422C24.0182 33.4621 22.1862 33.8314 20.3359 33.8281C18.4648 33.8281 16.6523 33.4609 14.9492 32.7422C13.304 32.0476 11.809 31.0407 10.5469 29.7773C10.2383 29.4687 9.9492 29.1484 9.67186 28.8203C9.55467 28.6758 9.37498 28.5937 9.19139 28.5937H6.44529C6.1992 28.5937 6.04686 28.8672 6.18358 29.0742C9.17576 33.7187 14.3945 36.7969 20.3359 36.7969C29.5625 36.7969 37.0547 29.3711 37.1484 20.1719C37.2422 10.8242 29.7383 3.22656 20.3789 3.20312ZM15.4305 24.375V21.4062H3.16483C2.99295 21.4062 2.85233 21.2656 2.85233 21.0937V18.9062C2.85233 18.7344 2.99295 18.5937 3.16483 18.5937H15.4305V15.625C15.4305 15.3633 15.7351 15.2148 15.9383 15.3789L21.4812 19.7539C21.5186 19.7831 21.5488 19.8205 21.5696 19.8631C21.5903 19.9058 21.6011 19.9526 21.6011 20C21.6011 20.0474 21.5903 20.0942 21.5696 20.1369C21.5488 20.1795 21.5186 20.2169 21.4812 20.2461L15.9383 24.6211C15.7351 24.7812 15.4305 24.6367 15.4305 24.375Z" fill="#227CCF"/>
</svg>
