<svg width="40" height="40" viewBox="0 0 40 40" fill="none" xmlns="http://www.w3.org/2000/svg">
<path d="M33.9063 28.5937H31.1602C30.9727 28.5937 30.7969 28.6758 30.6797 28.8203C30.4063 29.1523 30.1133 29.4727 29.8047 29.7773C28.5426 31.0407 27.0476 32.0476 25.4024 32.7422C23.6979 33.4621 21.8659 33.8314 20.0156 33.8281C18.1445 33.8281 16.332 33.4609 14.6289 32.7422C12.9837 32.0476 11.4887 31.0407 10.2266 29.7773C8.96218 28.5182 7.95399 27.0258 7.25783 25.3828C6.53517 23.6797 6.17189 21.8711 6.17189 20C6.17189 18.1289 6.53908 16.3203 7.25783 14.6172C7.95314 12.9727 8.95314 11.4922 10.2266 10.2227C11.5 8.95312 12.9805 7.95312 14.6289 7.25781C16.332 6.53906 18.1445 6.17187 20.0156 6.17187C21.8867 6.17187 23.6992 6.53515 25.4024 7.25781C27.0508 7.95312 28.5313 8.95312 29.8047 10.2227C30.1133 10.5312 30.4024 10.8516 30.6797 11.1797C30.7969 11.3242 30.9766 11.4062 31.1602 11.4062H33.9063C34.1524 11.4062 34.3047 11.1328 34.168 10.9258C31.1719 6.26953 25.9297 3.1875 19.9727 3.20312C10.6133 3.22656 3.10939 10.8242 3.20314 20.1719C3.29689 29.3711 10.7891 36.7969 20.0156 36.7969C25.957 36.7969 31.1758 33.7187 34.168 29.0742C34.3008 28.8672 34.1524 28.5937 33.9063 28.5937ZM37.3789 19.7539L31.836 15.3789C31.6289 15.2148 31.3281 15.3633 31.3281 15.625V18.5937H19.0625C18.8906 18.5937 18.75 18.7344 18.75 18.9062V21.0937C18.75 21.2656 18.8906 21.4062 19.0625 21.4062H31.3281V24.375C31.3281 24.6367 31.6328 24.7852 31.836 24.6211L37.3789 20.2461C37.4163 20.2169 37.4465 20.1795 37.4673 20.1369C37.488 20.0942 37.4988 20.0474 37.4988 20C37.4988 19.9526 37.488 19.9058 37.4673 19.8631C37.4465 19.8205 37.4163 19.7831 37.3789 19.7539V19.7539Z" fill="#227CCF"/>
</svg>
