<svg width="243" height="37" viewBox="0 0 243 37" fill="none" xmlns="http://www.w3.org/2000/svg">
<g clip-path="url(#clip0)">
<path d="M125 22.1677C125 25.1847 126.07 28.0782 127.975 30.2116C129.879 32.345 132.463 33.5435 135.156 33.5435C135.156 27.2236 130.609 22.1677 125 22.1677ZM135.156 12.6879C135.905 12.6879 136.622 13.0208 137.151 13.6134C137.68 14.206 137.978 15.0098 137.978 15.8478C137.978 16.6859 137.68 17.4896 137.151 18.0822C136.622 18.6748 135.905 19.0078 135.156 19.0078C134.408 19.0078 133.691 18.6748 133.161 18.0822C132.632 17.4896 132.335 16.6859 132.335 15.8478C132.335 15.0098 132.632 14.206 133.161 13.6134C133.691 13.0208 134.408 12.6879 135.156 12.6879ZM127.934 18.6918C127.934 19.5298 128.231 20.3336 128.76 20.9262C129.289 21.5188 130.007 21.8517 130.755 21.8517C131.353 21.8517 131.906 21.6368 132.335 21.2956V21.5357C132.335 22.3738 132.632 23.1775 133.161 23.7701C133.691 24.3627 134.408 24.6957 135.156 24.6957C135.905 24.6957 136.622 24.3627 137.151 23.7701C137.68 23.1775 137.978 22.3738 137.978 21.5357V21.2956C138.406 21.6368 138.959 21.8517 139.557 21.8517C140.306 21.8517 141.023 21.5188 141.552 20.9262C142.081 20.3336 142.379 19.5298 142.379 18.6918C142.379 17.4278 141.713 16.3534 140.765 15.8478C141.713 15.3422 142.379 14.2552 142.379 13.0039C142.379 12.1658 142.081 11.3621 141.552 10.7695C141.023 10.1769 140.306 9.84394 139.557 9.84394C138.959 9.84394 138.406 10.0462 137.978 10.4001V10.1599C137.978 9.32187 137.68 8.51813 137.151 7.92552C136.622 7.33292 135.905 7 135.156 7C134.408 7 133.691 7.33292 133.161 7.92552C132.632 8.51813 132.335 9.32187 132.335 10.1599V10.4001C131.906 10.0462 131.353 9.84394 130.755 9.84394C130.007 9.84394 129.289 10.1769 128.76 10.7695C128.231 11.3621 127.934 12.1658 127.934 13.0039C127.934 14.2552 128.6 15.3422 129.548 15.8478C128.6 16.3534 127.934 17.4278 127.934 18.6918ZM135.156 33.5435C137.85 33.5435 140.433 32.345 142.338 30.2116C144.243 28.0782 145.313 25.1847 145.313 22.1677C139.67 22.1677 135.156 27.2236 135.156 33.5435Z" fill="#227CCF"/>
<path d="M150.88 23.32V27.76H158.656V30.88H150.88V37H146.992V20.2H159.688V23.32H150.88ZM162.056 19.192H165.8V37H162.056V19.192ZM175.419 37.192C174.059 37.192 172.835 36.912 171.747 36.352C170.675 35.776 169.835 34.984 169.227 33.976C168.619 32.968 168.315 31.824 168.315 30.544C168.315 29.264 168.619 28.12 169.227 27.112C169.835 26.104 170.675 25.32 171.747 24.76C172.835 24.184 174.059 23.896 175.419 23.896C176.779 23.896 177.995 24.184 179.067 24.76C180.139 25.32 180.979 26.104 181.587 27.112C182.195 28.12 182.499 29.264 182.499 30.544C182.499 31.824 182.195 32.968 181.587 33.976C180.979 34.984 180.139 35.776 179.067 36.352C177.995 36.912 176.779 37.192 175.419 37.192ZM175.419 34.12C176.379 34.12 177.163 33.8 177.771 33.16C178.395 32.504 178.707 31.632 178.707 30.544C178.707 29.456 178.395 28.592 177.771 27.952C177.163 27.296 176.379 26.968 175.419 26.968C174.459 26.968 173.667 27.296 173.043 27.952C172.419 28.592 172.107 29.456 172.107 30.544C172.107 31.632 172.419 32.504 173.043 33.16C173.667 33.8 174.459 34.12 175.419 34.12ZM205.386 24.088L200.706 37H197.106L194.202 28.984L191.202 37H187.602L182.946 24.088H186.474L189.522 32.824L192.69 24.088H195.858L198.93 32.824L202.074 24.088H205.386ZM219.423 30.592C219.423 30.64 219.399 30.976 219.351 31.6H209.583C209.759 32.4 210.175 33.032 210.831 33.496C211.487 33.96 212.303 34.192 213.279 34.192C213.951 34.192 214.543 34.096 215.055 33.904C215.583 33.696 216.071 33.376 216.519 32.944L218.511 35.104C217.295 36.496 215.519 37.192 213.183 37.192C211.727 37.192 210.439 36.912 209.319 36.352C208.199 35.776 207.335 34.984 206.727 33.976C206.119 32.968 205.815 31.824 205.815 30.544C205.815 29.28 206.111 28.144 206.703 27.136C207.311 26.112 208.135 25.32 209.175 24.76C210.231 24.184 211.407 23.896 212.703 23.896C213.967 23.896 215.111 24.168 216.135 24.712C217.159 25.256 217.959 26.04 218.535 27.064C219.127 28.072 219.423 29.248 219.423 30.592ZM212.727 26.728C211.879 26.728 211.167 26.968 210.591 27.448C210.015 27.928 209.663 28.584 209.535 29.416H215.895C215.767 28.6 215.415 27.952 214.839 27.472C214.263 26.976 213.559 26.728 212.727 26.728ZM225.492 25.792C225.94 25.168 226.54 24.696 227.292 24.376C228.06 24.056 228.94 23.896 229.932 23.896V27.352C229.516 27.32 229.236 27.304 229.092 27.304C228.02 27.304 227.18 27.608 226.572 28.216C225.964 28.808 225.66 29.704 225.66 30.904V37H221.916V24.088H225.492V25.792ZM236.549 37.192C235.477 37.192 234.429 37.064 233.405 36.808C232.381 36.536 231.565 36.2 230.957 35.8L232.205 33.112C232.781 33.48 233.477 33.784 234.293 34.024C235.109 34.248 235.909 34.36 236.693 34.36C238.277 34.36 239.069 33.968 239.069 33.184C239.069 32.816 238.853 32.552 238.421 32.392C237.989 32.232 237.325 32.096 236.429 31.984C235.373 31.824 234.501 31.64 233.813 31.432C233.125 31.224 232.525 30.856 232.013 30.328C231.517 29.8 231.269 29.048 231.269 28.072C231.269 27.256 231.501 26.536 231.965 25.912C232.445 25.272 233.133 24.776 234.029 24.424C234.941 24.072 236.013 23.896 237.245 23.896C238.157 23.896 239.061 24 239.957 24.208C240.869 24.4 241.621 24.672 242.213 25.024L240.965 27.688C239.829 27.048 238.589 26.728 237.245 26.728C236.445 26.728 235.845 26.84 235.445 27.064C235.045 27.288 234.845 27.576 234.845 27.928C234.845 28.328 235.061 28.608 235.493 28.768C235.925 28.928 236.613 29.08 237.557 29.224C238.613 29.4 239.477 29.592 240.149 29.8C240.821 29.992 241.405 30.352 241.901 30.88C242.397 31.408 242.645 32.144 242.645 33.088C242.645 33.888 242.405 34.6 241.925 35.224C241.445 35.848 240.741 36.336 239.813 36.688C238.901 37.024 237.813 37.192 236.549 37.192Z" fill="black"/>
<path d="M91.464 13.088L86.784 26H83.184L80.28 17.984L77.28 26H73.68L69.024 13.088H72.552L75.6 21.824L78.768 13.088H81.936L85.008 21.824L88.152 13.088H91.464ZM93.2046 13.088H96.9486V26H93.2046V13.088ZM95.0766 11.288C94.3886 11.288 93.8286 11.088 93.3966 10.688C92.9646 10.288 92.7486 9.792 92.7486 9.2C92.7486 8.608 92.9646 8.112 93.3966 7.712C93.8286 7.312 94.3886 7.112 95.0766 7.112C95.7646 7.112 96.3246 7.304 96.7566 7.688C97.1886 8.072 97.4046 8.552 97.4046 9.128C97.4046 9.752 97.1886 10.272 96.7566 10.688C96.3246 11.088 95.7646 11.288 95.0766 11.288ZM108.751 25.376C108.383 25.648 107.927 25.856 107.383 26C106.855 26.128 106.295 26.192 105.703 26.192C104.167 26.192 102.975 25.8 102.127 25.016C101.295 24.232 100.879 23.08 100.879 21.56V16.256H98.8873V13.376H100.879V10.232H104.623V13.376H107.839V16.256H104.623V21.512C104.623 22.056 104.759 22.48 105.031 22.784C105.319 23.072 105.719 23.216 106.231 23.216C106.823 23.216 107.327 23.056 107.743 22.736L108.751 25.376ZM118.701 12.896C120.301 12.896 121.589 13.376 122.565 14.336C123.557 15.296 124.053 16.72 124.053 18.608V26H120.309V19.184C120.309 18.16 120.085 17.4 119.637 16.904C119.189 16.392 118.541 16.136 117.693 16.136C116.749 16.136 115.997 16.432 115.437 17.024C114.877 17.6 114.597 18.464 114.597 19.616V26H110.853V8.192H114.597V14.432C115.093 13.936 115.693 13.56 116.397 13.304C117.101 13.032 117.869 12.896 118.701 12.896Z" fill="#227CCF"/>
<path d="M27.384 6.2L21.888 23H17.712L14.016 11.624L10.2 23H6.048L0.528 6.2H4.56L8.352 18.008L12.312 6.2H15.912L19.752 18.104L23.664 6.2H27.384ZM34.4736 23.192C33.1136 23.192 31.8896 22.912 30.8016 22.352C29.7296 21.776 28.8896 20.984 28.2816 19.976C27.6736 18.968 27.3696 17.824 27.3696 16.544C27.3696 15.264 27.6736 14.12 28.2816 13.112C28.8896 12.104 29.7296 11.32 30.8016 10.76C31.8896 10.184 33.1136 9.896 34.4736 9.896C35.8336 9.896 37.0496 10.184 38.1216 10.76C39.1936 11.32 40.0336 12.104 40.6416 13.112C41.2496 14.12 41.5536 15.264 41.5536 16.544C41.5536 17.824 41.2496 18.968 40.6416 19.976C40.0336 20.984 39.1936 21.776 38.1216 22.352C37.0496 22.912 35.8336 23.192 34.4736 23.192ZM34.4736 20.12C35.4336 20.12 36.2176 19.8 36.8256 19.16C37.4496 18.504 37.7616 17.632 37.7616 16.544C37.7616 15.456 37.4496 14.592 36.8256 13.952C36.2176 13.296 35.4336 12.968 34.4736 12.968C33.5136 12.968 32.7216 13.296 32.0976 13.952C31.4736 14.592 31.1616 15.456 31.1616 16.544C31.1616 17.632 31.4736 18.504 32.0976 19.16C32.7216 19.8 33.5136 20.12 34.4736 20.12ZM47.6321 11.792C48.0801 11.168 48.6801 10.696 49.4321 10.376C50.2001 10.056 51.0801 9.896 52.0721 9.896V13.352C51.6561 13.32 51.3761 13.304 51.2321 13.304C50.1601 13.304 49.3201 13.608 48.7121 14.216C48.1041 14.808 47.8001 15.704 47.8001 16.904V23H44.0561V10.088H47.6321V11.792ZM59.8423 17.936L58.0423 19.712V23H54.2983V5.192H58.0423V15.272L63.5143 10.088H67.9783L62.6023 15.56L68.4583 23H63.9223L59.8423 17.936Z" fill="#1A1A1A"/>
</g>
<defs>
<clipPath id="clip0">
<rect width="243" height="37" fill="white"/>
</clipPath>
</defs>
</svg>
