<svg width="20" height="20" viewBox="0 0 20 20" fill="none" xmlns="http://www.w3.org/2000/svg">
<path d="M19.3945 2.63672L13.125 0.0390625L6.89453 2.5L0.605469 0.0390625C0.553385 0.0260417 0.501302 0.0195312 0.449219 0.0195312C0.397135 0.0195312 0.348307 0.0260417 0.302734 0.0390625C0.257161 0.0520833 0.214844 0.0716146 0.175781 0.0976562C0.136719 0.123698 0.104167 0.15625 0.078125 0.195312C0.0520833 0.234375 0.0325521 0.279948 0.0195312 0.332031C0.00651042 0.384115 0 0.436198 0 0.488281V16.6992C0 16.8815 0.0585938 17.0475 0.175781 17.1973C0.292969 17.347 0.436198 17.4479 0.605469 17.5L6.89453 19.9805L13.125 17.4609L19.3945 19.9219C19.4466 19.9349 19.4987 19.9414 19.5508 19.9414C19.681 19.9414 19.7884 19.8958 19.873 19.8047C19.9577 19.7135 20 19.5964 20 19.4531V3.4375C20 3.32031 19.974 3.20638 19.9219 3.0957C19.8698 2.98503 19.7982 2.88737 19.707 2.80273C19.6159 2.7181 19.5117 2.66276 19.3945 2.63672ZM7.5 3.53516L12.5 1.58203V16.4453L7.5 18.4375V3.53516ZM1.25 1.69922L6.25 3.53516V18.418L1.25 16.3867V1.69922ZM18.75 18.3203L13.75 16.4453V1.60156L18.75 3.75V18.3203Z" fill="#227CCF"/>
</svg>
