<svg width="14" height="20" viewBox="0 0 14 20" fill="none" xmlns="http://www.w3.org/2000/svg">
<g clip-path="url(#clip0)">
<path d="M12.7485 4.7541C12.7212 4.67213 12.6734 4.54235 12.6051 4.36476C12.5368 4.18716 12.489 4.07104 12.4616 4.0164C11.8879 2.6776 11.0477 1.68716 9.94115 1.04508C8.83459 0.403008 7.68022 0.0819702 6.47804 0.0819702C4.92066 0.0819702 3.51355 0.594265 2.25672 1.61886C0.999894 2.64345 0.262189 4.0847 0.0436096 5.94263V6.72131L0.0845932 6.92623V7.21312C0.139238 7.65028 0.282681 8.14891 0.514921 8.70902C0.747162 9.26913 0.95891 9.71995 1.15017 10.0615C1.34142 10.403 1.6488 10.9221 2.0723 11.6189C2.4958 12.3156 2.77585 12.7732 2.91246 12.9918C3.70481 14.3306 4.92066 16.3115 6.56 18.9344C6.77858 18.5792 7.52995 17.2951 8.8141 15.082C8.86875 15 8.97121 14.8361 9.12148 14.5902C9.27175 14.3443 9.37421 14.153 9.42886 14.0164C9.4835 13.9344 9.5723 13.8183 9.69525 13.668C9.8182 13.5178 9.907 13.4016 9.96164 13.3197C10.1529 12.9645 10.5696 12.2883 11.2116 11.291C11.8537 10.2937 12.325 9.45355 12.6256 8.77049C12.9261 8.08743 13.0764 7.41804 13.0764 6.7623V5.86066C13.0764 5.56011 12.9671 5.19126 12.7485 4.7541ZM6.51902 8.81148C5.45345 8.81148 4.71574 8.29235 4.3059 7.2541C4.27858 7.11749 4.26492 6.91257 4.26492 6.63935V6.10656C4.26492 5.4235 4.49716 4.89754 4.96164 4.52869C5.42612 4.15984 5.97257 3.97541 6.60099 3.97541C7.28405 3.97541 7.85099 4.20765 8.30181 4.67213C8.75263 5.13661 8.97804 5.71039 8.97804 6.39345C8.97804 7.07651 8.73896 7.65028 8.26082 8.11476C7.78268 8.57924 7.20208 8.81148 6.51902 8.81148Z" fill="#227CCF"/>
</g>
<defs>
<clipPath id="clip0">
<rect width="13.12" height="20" fill="white"/>
</clipPath>
</defs>
</svg>
