<svg width="18" height="18" viewBox="0 0 18 18" fill="none" xmlns="http://www.w3.org/2000/svg">
<path d="M16.25 7.125H10.625V1.5C10.625 0.809766 10.0652 0.25 9.375 0.25H8.125C7.43477 0.25 6.875 0.809766 6.875 1.5V7.125H1.25C0.559766 7.125 0 7.68477 0 8.375V9.625C0 10.3152 0.559766 10.875 1.25 10.875H6.875V16.5C6.875 17.1902 7.43477 17.75 8.125 17.75H9.375C10.0652 17.75 10.625 17.1902 10.625 16.5V10.875H16.25C16.9402 10.875 17.5 10.3152 17.5 9.625V8.375C17.5 7.68477 16.9402 7.125 16.25 7.125Z" fill="#227CCF"/>
</svg>
