<svg width="25" height="25" viewBox="0 0 25 25" fill="none" xmlns="http://www.w3.org/2000/svg">
<path d="M19.0625 9.37501H13.125V12.1094C13.125 14.0479 11.8633 15.625 10.3125 15.625C8.76172 15.625 7.50001 14.0479 7.50001 12.1094V6.17189L4.96485 8.07618C4.21094 8.63771 3.75001 9.65821 3.75001 10.752V13.0615L0.625006 15.3174C0.0273497 15.7471 -0.179682 16.7041 0.167975 17.4512L3.29297 24.2188C3.63672 24.9658 4.40235 25.2197 5.00001 24.7901L9.03907 21.875H14.375C15.7539 21.875 16.875 20.4736 16.875 18.75H17.5C18.1914 18.75 18.75 18.0518 18.75 17.1875V14.0625H19.0625C19.582 14.0625 20 13.5401 20 12.8906V10.5469C20 9.89747 19.582 9.37501 19.0625 9.37501ZM24.832 7.54884L21.707 0.781262C21.3633 0.0341915 20.5977 -0.219715 20 0.209973L15.9609 3.12501H11.9688C11.5 3.12501 11.043 3.29103 10.6445 3.59864L9.33594 4.61915C8.96875 4.90236 8.75 5.40529 8.75 5.94239V12.1094C8.75 13.1885 9.44922 14.0625 10.3125 14.0625C11.1758 14.0625 11.875 13.1885 11.875 12.1094V7.81251H19.0625C20.2695 7.81251 21.25 9.0381 21.25 10.5469V11.9385L24.375 9.68263C24.9727 9.24806 25.1758 8.29591 24.832 7.54884Z" fill="#227CCF"/>
</svg>
