<svg width="40" height="40" viewBox="0 0 40 40" fill="none" xmlns="http://www.w3.org/2000/svg">
<path d="M35.3125 20H33.125C32.9531 20 32.8125 20.1406 32.8125 20.3125V32.8125H7.1875V7.1875H19.6875C19.8594 7.1875 20 7.04688 20 6.875V4.6875C20 4.51562 19.8594 4.375 19.6875 4.375H5.625C4.93359 4.375 4.375 4.93359 4.375 5.625V34.375C4.375 35.0664 4.93359 35.625 5.625 35.625H34.375C35.0664 35.625 35.625 35.0664 35.625 34.375V20.3125C35.625 20.1406 35.4844 20 35.3125 20Z" fill="#227CCF"/>
<path d="M13.9023 20.8945L13.8281 25.5391C13.8242 25.8867 14.1054 26.1719 14.4531 26.1719H14.4687L19.0781 26.0586C19.1562 26.0547 19.2344 26.0234 19.289 25.9687L35.5351 9.75781C35.6562 9.63672 35.6562 9.4375 35.5351 9.31641L30.6797 4.46484C30.6172 4.40234 30.539 4.375 30.457 4.375C30.375 4.375 30.2969 4.40625 30.2344 4.46484L13.9922 20.6758C13.9357 20.7348 13.9037 20.8129 13.9023 20.8945V20.8945ZM16.3828 21.8164L30.457 7.77344L32.2226 9.53516L18.1406 23.5859L16.3554 23.6289L16.3828 21.8164V21.8164Z" fill="#227CCF"/>
</svg>
