<svg width="26" height="24" viewBox="0 0 26 24" fill="none" xmlns="http://www.w3.org/2000/svg">
<path fill-rule="evenodd" clip-rule="evenodd" d="M13 3.60001C13.3448 3.60007 13.6754 3.72655 13.9191 3.95161L17.8191 7.55161C18.0559 7.77793 18.187 8.08105 18.184 8.39569C18.181 8.71032 18.0443 9.0113 17.8033 9.23379C17.5622 9.45628 17.2362 9.58248 16.8953 9.58521C16.5545 9.58795 16.2261 9.46699 15.9809 9.2484L13 6.49681L10.0191 9.2484C9.77393 9.46699 9.44555 9.58795 9.10469 9.58521C8.76384 9.58248 8.43778 9.45628 8.19675 9.23379C7.95572 9.0113 7.819 8.71032 7.81604 8.39569C7.81308 8.08105 7.94411 7.77793 8.18092 7.55161L12.0809 3.95161C12.3247 3.72655 12.6553 3.60007 13 3.60001ZM8.18092 14.7516C8.4247 14.5266 8.7553 14.4003 9.10001 14.4003C9.44473 14.4003 9.77533 14.5266 10.0191 14.7516L13 17.5032L15.9809 14.7516C16.2261 14.533 16.5545 14.4121 16.8953 14.4148C17.2362 14.4175 17.5622 14.5437 17.8033 14.7662C18.0443 14.9887 18.181 15.2897 18.184 15.6043C18.187 15.919 18.0559 16.2221 17.8191 16.4484L13.9191 20.0484C13.6753 20.2734 13.3447 20.3997 13 20.3997C12.6553 20.3997 12.3247 20.2734 12.0809 20.0484L8.18092 16.4484C7.9372 16.2234 7.80029 15.9182 7.80029 15.6C7.80029 15.2818 7.9372 14.9766 8.18092 14.7516V14.7516Z" fill="#3B99FC"/>
</svg>
