<svg width="22" height="20" viewBox="0 0 22 20" fill="none" xmlns="http://www.w3.org/2000/svg">
<g clip-path="url(#clip0)">
<path d="M8.49123 6.23334V11.7333L13.0263 14.3917L13.7982 13.2917L9.93859 11.0917V6.23334H8.49123Z" fill="#227CCF"/>
<path d="M16.1333 9.89998C16.2788 10.8111 16.2146 11.7413 15.9453 12.6266C15.676 13.5119 15.208 14.3313 14.5734 15.0282C13.9388 15.7252 13.1527 16.2832 12.2693 16.6639C11.3859 17.0446 10.4262 17.2388 9.45614 17.2333C5.69298 17.2333 2.70175 14.3916 2.70175 10.8166C2.70175 7.24165 5.69298 4.39998 9.45614 4.39998C10.1316 4.39998 10.7781 4.49165 11.386 4.66582V2.77748C10.7684 2.63998 10.1219 2.56665 9.45614 2.56665C4.63158 2.56665 0.771927 6.23332 0.771927 10.8166C0.771927 15.4 4.63158 19.0666 9.45614 19.0666C10.6793 19.0715 11.8897 18.8297 13.0073 18.3574C14.1249 17.8851 15.1244 17.1929 15.9396 16.3266C16.7549 15.4602 17.3674 14.4395 17.7368 13.3317C18.1062 12.2239 18.224 11.0542 18.0825 9.89998H16.1333V9.89998Z" fill="#227CCF"/>
<path d="M18.1404 3.48334V0.733337H16.2105V3.48334H13.3158V5.31667H16.2105V8.06667H18.1404V5.31667H21.0351V3.48334H18.1404Z" fill="#227CCF"/>
</g>
<defs>
<clipPath id="clip0">
<rect width="22" height="19.8" fill="white"/>
</clipPath>
</defs>
</svg>
