<svg width="26" height="28" viewBox="0 0 26 28" fill="none" xmlns="http://www.w3.org/2000/svg">
<path d="M19.6731 0C17.372 0 15.5064 1.86771 15.5064 4.16667C15.5064 6.94271 19.1522 10.7354 19.1522 14.551H20.1939C20.1949 10.7354 23.8397 7.05208 23.8397 4.16667C23.8397 1.86771 21.9741 0 19.6731 0ZM19.6731 2.01875C19.9553 2.01889 20.2347 2.07461 20.4954 2.18273C20.756 2.29085 20.9928 2.44926 21.1923 2.6489C21.3918 2.84855 21.5499 3.08552 21.6578 3.3463C21.7657 3.60708 21.8211 3.88654 21.821 4.16875C21.8208 4.45095 21.7651 4.73037 21.657 4.99104C21.5489 5.25171 21.3905 5.48854 21.1908 5.68799C20.9912 5.88744 20.7542 6.04562 20.4934 6.15349C20.2327 6.26135 19.9532 6.3168 19.671 6.31667C19.1009 6.31639 18.5543 6.08966 18.1514 5.68636C17.7485 5.28306 17.5223 4.73622 17.5225 4.16615C17.5228 3.59607 17.7495 3.04945 18.1528 2.64654C18.5561 2.24363 19.103 2.01743 19.6731 2.01771V2.01875ZM13.4231 2.08333C6.53036 2.08333 0.923065 7.69062 0.923065 14.5833C0.923065 21.476 6.53036 27.0833 13.4231 27.0833C20.3158 27.0833 25.9231 21.476 25.9231 14.5833C25.9231 12.4896 25.4043 10.525 24.4908 8.78854C24.3522 9.06354 24.2126 9.325 24.0679 9.60312C23.7939 10.1323 23.5054 10.6667 23.2533 11.1979C23.5137 11.9427 23.6929 12.7302 23.7741 13.5417H22.4074C22.3324 13.8906 22.2772 14.2187 22.2772 14.551V15.625H23.7751C23.6338 17.0936 23.1784 18.5145 22.4397 19.7917H19.3814C19.6106 18.8146 19.7429 17.7344 19.8366 16.6344H17.7845C17.6874 17.7002 17.5028 18.7562 17.2324 19.7917H9.61369C9.26165 18.4284 9.05425 17.0318 8.99494 15.625H17.0679V14.551C17.0598 14.211 17.0161 13.8727 16.9376 13.5417H8.99598C9.0553 12.1349 9.26269 10.7383 9.61473 9.375H15.1814C14.8201 8.69271 14.4831 7.99783 14.171 7.29167H10.3304C11.1918 5.32604 12.3304 4.16667 13.4231 4.16667C13.4231 3.44271 13.5533 2.7625 13.7814 2.11562C13.6616 2.11146 13.5439 2.08333 13.4231 2.08333ZM9.12619 5.11042C8.71135 5.80324 8.3626 6.53353 8.08452 7.29167H6.00119C6.89972 6.37844 7.95915 5.63896 9.12619 5.11042ZM4.4064 9.375H7.46473C7.14968 10.7434 6.96448 12.1385 6.91161 13.5417H3.07098C3.21184 12.073 3.6673 10.6519 4.4064 9.375V9.375ZM3.07098 15.625H6.91265C6.97411 17.1094 7.16577 18.5104 7.46577 19.7917H4.4064C3.6682 18.5144 3.2128 17.0935 3.07098 15.625ZM6.00119 21.875H8.08452C8.38452 22.6833 8.73556 23.4094 9.12619 24.0562C7.95915 23.5277 6.89972 22.7882 6.00119 21.875V21.875ZM10.3304 21.875H16.5158C15.6543 23.8406 14.5158 25 13.4231 25C12.3304 25 11.1908 23.8406 10.3304 21.875ZM18.7616 21.875H20.8449C19.9464 22.7882 18.887 23.5277 17.7199 24.0562C18.1106 23.4104 18.4616 22.6844 18.7616 21.875Z" fill="#227CCF"/>
</svg>
